<svg xmlns="http://www.w3.org/2000/svg" xmlns:xlink="http://www.w3.org/1999/xlink" width="58" height="58" viewBox="0 0 58 58">
  <defs>
    <clipPath id="clip-path">
      <rect id="Rectangle_1749" data-name="Rectangle 1749" width="58" height="58" transform="translate(343 731)" fill="#fff" stroke="#707070" stroke-width="1"/>
    </clipPath>
  </defs>
  <g id="GB_Agendas_and_Minutes" data-name="GB Agendas and Minutes" transform="translate(-343 -731)" clip-path="url(#clip-path)">
    <g id="Group_10150" data-name="Group 10150" transform="translate(348 737)">
      <path id="Path_8738" data-name="Path 8738" d="M45,37v6.968h8.516" transform="translate(-9.935 -8.129)" fill="none" stroke="#0e164c" stroke-linecap="round" stroke-linejoin="round" stroke-width="2"/>
      <circle id="Ellipse_6" data-name="Ellipse 6" cx="13.935" cy="13.935" r="13.935" transform="translate(21.129 21.129)" fill="none" stroke="#0e164c" stroke-linecap="round" stroke-linejoin="round" stroke-width="2"/>
      <path id="Path_8739" data-name="Path 8739" d="M17.258,41.161H2.548A1.548,1.548,0,0,1,1,39.613V5.548A1.548,1.548,0,0,1,2.548,4H42.806a1.548,1.548,0,0,1,1.548,1.548v14.71" transform="translate(0 -0.677)" fill="none" stroke="#0e164c" stroke-linecap="round" stroke-linejoin="round" stroke-width="2"/>
      <line id="Line_13" data-name="Line 13" y2="4.645" transform="translate(8.742 1)" fill="none" stroke="#0e164c" stroke-linecap="round" stroke-linejoin="round" stroke-width="2"/>
      <line id="Line_14" data-name="Line 14" y2="4.645" transform="translate(15.71 1)" fill="none" stroke="#0e164c" stroke-linecap="round" stroke-linejoin="round" stroke-width="2"/>
      <line id="Line_15" data-name="Line 15" y2="4.645" transform="translate(22.677 1)" fill="none" stroke="#0e164c" stroke-linecap="round" stroke-linejoin="round" stroke-width="2"/>
      <line id="Line_16" data-name="Line 16" y2="4.645" transform="translate(29.645 1)" fill="none" stroke="#0e164c" stroke-linecap="round" stroke-linejoin="round" stroke-width="2"/>
      <line id="Line_17" data-name="Line 17" y2="4.645" transform="translate(36.613 1)" fill="none" stroke="#0e164c" stroke-linecap="round" stroke-linejoin="round" stroke-width="2"/>
      <line id="Line_18" data-name="Line 18" x2="34.065" transform="translate(5.645 11.839)" fill="none" stroke="#0e164c" stroke-linecap="square" stroke-linejoin="round" stroke-width="2"/>
    </g>
  </g>
</svg>
