<svg
  xmlns="http://www.w3.org/2000/svg"
  xmlns:xlink="http://www.w3.org/1999/xlink"
  width="58"
  height="58"
  viewBox="0 0 58 58">
  <defs>
    <clipPath id="clip-path">
      <rect
        id="Rectangle_1749"
        data-name="Rectangle 1749"
        width="58"
        height="58"
        transform="translate(343 731)"
        fill="#fff"
        stroke="#707070"
        stroke-width="1" />
    </clipPath>
  </defs>
  <g
    id="GB_Notifications_Signup"
    data-name="GB Notifications Signup"
    transform="translate(-343 -731)"
    clip-path="url(#clip-path)">
    <g id="Group_10147" data-name="Group 10147" transform="translate(355 734)">
      <path
        id="Path_8736"
        data-name="Path 8736"
        d="M31.854,41.039v4.536A5.373,5.373,0,0,1,26.534,51H6.32A5.373,5.373,0,0,1,1,45.575V6.425A5.37,5.37,0,0,1,6.32,1H26.534a5.373,5.373,0,0,1,5.32,5.425v5.087"
        fill="none"
        stroke="#0e164c"
        stroke-linecap="round"
        stroke-linejoin="round"
        stroke-width="2" />
      <line
        id="Line_9"
        data-name="Line 9"
        x2="6.384"
        transform="translate(13.234 45.576)"
        fill="none"
        stroke="#0e164c"
        stroke-linecap="round"
        stroke-linejoin="round"
        stroke-width="2" />
      <line
        id="Line_10"
        data-name="Line 10"
        x2="2.303"
        transform="translate(15.275 6.042)"
        fill="none"
        stroke="#0e164c"
        stroke-linecap="round"
        stroke-linejoin="round"
        stroke-width="2" />
      <path
        id="Path_8737"
        data-name="Path 8737"
        d="M25.844,15.158,13.512,36.3a2.433,2.433,0,0,0,2.05,3.675H40.225a2.433,2.433,0,0,0,2.05-3.675L29.943,15.158A2.361,2.361,0,0,0,25.844,15.158Z"
        transform="translate(-2.614 -2.582)"
        fill="none"
        stroke="#0e164c"
        stroke-linecap="round"
        stroke-linejoin="round"
        stroke-width="2" />
      <line
        id="Line_11"
        data-name="Line 11"
        y2="9.219"
        transform="translate(25.359 18.73)"
        fill="none"
        stroke="#0e164c"
        stroke-linecap="round"
        stroke-linejoin="round"
        stroke-width="2" />
      <line
        id="Line_12"
        data-name="Line 12"
        y2="1.026"
        transform="translate(25.359 32.176)"
        fill="none"
        stroke="#0e164c"
        stroke-linecap="round"
        stroke-linejoin="round"
        stroke-width="2" />
    </g>
  </g>
</svg>
