<svg xmlns="http://www.w3.org/2000/svg" xmlns:xlink="http://www.w3.org/1999/xlink" width="58" height="58" viewBox="0 0 58 58">
  <defs>
    <clipPath id="clip-path">
      <rect id="Rectangle_1749" data-name="Rectangle 1749" width="58" height="58" transform="translate(343 731)" fill="#fff" stroke="#707070" stroke-width="1"/>
    </clipPath>
  </defs>
  <g id="GB_Contact_Us" data-name="GB Contact Us" transform="translate(-343 -731)" clip-path="url(#clip-path)">
    <g id="Group_10154" data-name="Group 10154" transform="translate(346 734)">
      <path id="Path_8744" data-name="Path 8744" d="M33.758,46.188a6.551,6.551,0,0,1-6.551,6.552A26.207,26.207,0,0,1,1,26.533a6.547,6.547,0,0,1,7.639-6.46l.167.029A1.592,1.592,0,0,1,10.074,21.4l1.654,9.74a.523.523,0,0,1-.287.559s-1.585.759-2.361,1.143a.521.521,0,0,0-.259.649A19.7,19.7,0,0,0,20.227,44.91a.523.523,0,0,0,.649-.254c.391-.772,1.167-2.364,1.167-2.364a.52.52,0,0,1,.555-.282l9.745,1.655a1.591,1.591,0,0,1,1.294,1.268c.009.055.019.111.028.167A6.505,6.505,0,0,1,33.758,46.188Z" transform="translate(0 -1.74)" fill="none" stroke="#0e164c" stroke-miterlimit="10" stroke-width="2"/>
      <path id="Path_8745" data-name="Path 8745" d="M19.981,17.379a16.376,16.376,0,1,1,9.391,14.815L25.38,33.715a.68.68,0,0,1-.911-.61l-.306-4.8A16.321,16.321,0,0,1,19.981,17.379Z" transform="translate(-1.74)" fill="none" stroke="#0e164c" stroke-linejoin="round" stroke-width="2"/>
      <path id="Path_8746" data-name="Path 8746" d="M37.063,19.375a1.293,1.293,0,1,1,1.293,1.293,1.294,1.294,0,0,1-1.293-1.293" transform="translate(-3.305 -1.566)" fill="#0e164c" stroke="#0e164c" stroke-width="0.5"/>
      <path id="Path_8747" data-name="Path 8747" d="M44.656,19.375a1.293,1.293,0,1,1,1.293,1.293,1.293,1.293,0,0,1-1.293-1.293" transform="translate(-4.001 -1.566)" fill="#0e164c" stroke="#0e164c" stroke-width="0.5"/>
      <path id="Path_8748" data-name="Path 8748" d="M29.471,19.375a1.293,1.293,0,1,1,1.293,1.293,1.293,1.293,0,0,1-1.293-1.293" transform="translate(-2.609 -1.566)" fill="#0e164c" stroke="#0e164c" stroke-width="0.5"/>
    </g>
  </g>
</svg>
